<svg width="960" height="600" version="1.1" xmlns="http://www.w3.org/2000/svg"><g></g><g transform="translate(480,300)scale(1.1764706373214722,1.1764706373214722)"><text text-anchor="middle" transform="translate(-203,-8)rotate(59.99999999999999)" style="font-size: 10px; font-family: Impact; fill: rgb(82, 84, 163);"></text><text text-anchor="middle" transform="translate(15,95)rotate(-59.99999999999999)skewX(0)scale(1,1)" style="font-size: 100px; font-family: Impact; fill: rgb(214, 97, 107);">Java</text><text text-anchor="middle" transform="translate(-195,84)rotate(-40)skewX(-3.1805546814635176e-15)scale(0.9999999999999999,0.9999999999999999)" style="font-size: 40px; font-family: Impact; fill: rgb(173, 73, 74);">Elasticsearch</text><text text-anchor="middle" transform="translate(-34,18)rotate(-40.00000000000001)skewX(-3.1805546814635176e-15)scale(0.9999999999999999,0.9999999999999999)" style="font-size: 40px; font-family: Impact; fill: rgb(165, 81, 148);">GoogleWebToolkit</text><text text-anchor="middle" transform="translate(143,-49)rotate(40)skewX(3.1805546814635176e-15)scale(0.9999999999999999,0.9999999999999999)" style="font-size: 40px; font-family: Impact; fill: rgb(57, 59, 121);">J2EE</text><text text-anchor="middle" transform="translate(-31,-111)rotate(0)" style="font-size: 10px; font-family: Impact; fill: rgb(140, 109, 49);">Hadoop</text><text text-anchor="middle" transform="translate(-98,-138)rotate(-40)skewX(-3.1805546814635176e-15)scale(0.9999999999999999,0.9999999999999999)" style="font-size: 10px; font-family: Impact; fill: rgb(206, 219, 156);">Spring</text><text text-anchor="middle" transform="translate(53,119)rotate(40)skewX(3.1805546814635176e-15)scale(0.9999999999999999,0.9999999999999999)" style="font-size: 10px; font-family: Impact; fill: rgb(189, 158, 57);">JSP</text><text text-anchor="middle" transform="translate(85,28)rotate(-60)" style="font-size: 10px; font-family: Impact; fill: rgb(231, 203, 148);">Hibernate</text><text text-anchor="middle" transform="translate(-122,41)rotate(-40)skewX(-3.1805546814635176e-15)scale(0.9999999999999999,0.9999999999999999)" style="font-size: 10px; font-family: Impact; fill: rgb(206, 109, 189);">IBMWebsphere</text><text text-anchor="middle" transform="translate(-224,-60)rotate(40)skewX(3.1805546814635176e-15)scale(0.9999999999999999,0.9999999999999999)" style="font-size: 10px; font-family: Impact; fill: rgb(206, 219, 156);">Tomcat</text></g></svg>